<!DOCTYPE svg PUBLIC "-//W3C//DTD SVG 1.1//EN" "http://www.w3.org/Graphics/SVG/1.1/DTD/svg11.dtd">
<!-- Uploaded to: SVG Repo, www.svgrepo.com, Transformed by: SVG Repo Mixer Tools -->
<svg fill="#ffffff" width="800px" height="800px" viewBox="0 0 24 24" xmlns="http://www.w3.org/2000/svg" stroke="#ffffff">
<g id="SVGRepo_bgCarrier" stroke-width="0"/>
<g id="SVGRepo_tracerCarrier" stroke-linecap="round" stroke-linejoin="round"/>
<g id="SVGRepo_iconCarrier"> <g data-name="Layer 2"> <g data-name="external-link"> <rect width="24" height="24" opacity="0"/> <path d="M20 11a1 1 0 0 0-1 1v6a1 1 0 0 1-1 1H6a1 1 0 0 1-1-1V6a1 1 0 0 1 1-1h6a1 1 0 0 0 0-2H6a3 3 0 0 0-3 3v12a3 3 0 0 0 3 3h12a3 3 0 0 0 3-3v-6a1 1 0 0 0-1-1z"/> <path d="M16 5h1.58l-6.29 6.28a1 1 0 0 0 0 1.42 1 1 0 0 0 1.42 0L19 6.42V8a1 1 0 0 0 1 1 1 1 0 0 0 1-1V4a1 1 0 0 0-1-1h-4a1 1 0 0 0 0 2z"/> </g> </g> </g>
</svg>